<svg xmlns="http://www.w3.org/2000/svg" width="136.719" height="265.778" viewBox="0 0 136.719 265.778">
  <g id="girl" transform="translate(1.533 1.5)" opacity="0.74">
    <g id="Group_8" data-name="Group 8" transform="translate(0 52.592)">
      <g id="Group_7" data-name="Group 7">
        <path id="Path_28" data-name="Path 28" d="M258.817,191.592c-.169-.463-17.013-46.548-24.432-68.132-4.786-13.927-12.811-20.989-23.852-20.989H174.709c-11.041,0-19.066,7.062-23.852,20.989-7.417,21.584-24.262,67.669-24.432,68.132a10.316,10.316,0,0,0,19.377,7.085c.14-.384,11.689-31.982,19.926-55.248a11.69,11.69,0,0,0,4.225,5.967l.025,15.115-17.744,44.744a4.308,4.308,0,0,0,2.994,5.779c2.649.636,6.157,1.5,9.962,2.454v82.789a12.379,12.379,0,1,0,24.759,0V223.341a30.074,30.074,0,0,0,5.344,0v76.94a12.379,12.379,0,0,0,24.759,0v-82.8c3.8-.951,7.306-1.816,9.956-2.451a4.315,4.315,0,0,0,3-5.78l-17.741-44.735.025-15.115a11.686,11.686,0,0,0,4.225-5.967c8.236,23.266,19.786,54.864,19.926,55.248a10.316,10.316,0,0,0,19.377-7.084Z" transform="translate(-125.795 -102.471)" fill="none" stroke="#232323" stroke-width="3"/>
      </g>
    </g>
    <g id="Group_10" data-name="Group 10" transform="translate(44.296 0)">
      <g id="Group_9" data-name="Group 9">
        <ellipse id="Ellipse_6" data-name="Ellipse 6" cx="22.53" cy="22.53" rx="22.53" ry="22.53" fill="none" stroke="#232323" stroke-width="3"/>
      </g>
    </g>
  </g>
</svg>
