<svg xmlns="http://www.w3.org/2000/svg" width="24.586" height="24.448" viewBox="0 0 24.586 24.448">
  <path id="Icon_ionic-ios-pricetag" data-name="Icon ionic-ios-pricetag" d="M24.734,3.375H17.955a.8.8,0,0,0-.563.232L3.838,17.16a1.591,1.591,0,0,0,0,2.245l6.454,6.454a1.591,1.591,0,0,0,2.245,0L26.085,12.311a.8.8,0,0,0,.232-.563V4.964A1.581,1.581,0,0,0,24.734,3.375ZM22.1,9.542a1.765,1.765,0,1,1,1.561-1.561A1.767,1.767,0,0,1,22.1,9.542Z" transform="translate(-2.482 -2.625)" fill="none" stroke="#ba3636" stroke-width="1.5"/>
</svg>
